<?xml version="1.0" encoding="utf-8"?>
<!-- Generator: Adobe Illustrator 19.1.0, SVG Export Plug-In . SVG Version: 6.00 Build 0)  -->
<svg version="1.1" id="Layer_1" xmlns="http://www.w3.org/2000/svg" xmlns:xlink="http://www.w3.org/1999/xlink" x="0px" y="0px"
	 viewBox="328.8 240.6 314.4 313" style="enable-background:new 328.8 240.6 314.4 313;" xml:space="preserve">
<style type="text/css">
	.st0{fill:#FFFFFF;}
</style>
<g>
	<g>
		<path class="st0" d="M578.8,349.8c-11.7-5.7-26.8-8.6-37.9-14.7c-8.7-4.8-15.4-12.8-24.8-17.2c-9.6-4.7-24-9.4-29.5-10.8
			c-19.5-4.8-35.9,1.4-41.6,5.9c-10.6,8.4-18.9,22-15.7,41.6c1.4,8.3,3.9,15.3,8,21c16.4,23.2,47.2,30.8,71.6,45.4
			c0.9,0.6,1.8,0.4,2.3-0.3c4.1-6,7.4-10.9,14.3-13.7c7-2.9,18-1.9,27.5-1.5c9.8,0.5,20.4-0.4,24-5.5c4.3-6.1,4-18.3-2.5-22
			c-3.5-2-8.7-2.1-12.5-3.8c-2.8-1.3-4.9-3.7-6.4-7c-1.3-2.8-2.5-7.3-0.8-10.3c1.5-2.7,5.4-2,8.5-1.3c6.1,1.4,16.4,2.9,22.3,0.3
			C587.3,355.1,581.1,351,578.8,349.8z M517.2,346.5c-0.5,2.7-2.2,8-4.9,8.4c-2.7,0.3-4.6-2.5-6.5-3.6c-3.2-1.8-7.8-3-12.1-4.4
			c-3.7-1.2-8.7-2.7-10.1-6.2c-2.2-5.2,2.9-7.7,6.7-8.8c3.5-1.1,6.1-1.5,10.6-1.7c6.7-0.3,13.1,0.6,15.3,4.9
			C517.6,337.5,518,342.5,517.2,346.5z"/>
	</g>
</g>
<path class="st0" d="M332.1,366.2c0.4-2,0.5-2.5,1.7-4.1c1.9-2.8,24.9-28.7,60.6-34.9c4.7-0.7,8.1-0.3,8.8,1.5
	c1.3,3.3-1.4,5.2-4.7,7.1c-57.2,34.2-53.2,85-53.7,105.8c0.2,8.5-6,10.1-7.5,6C330.6,429.4,325,400.7,332.1,366.2z"/>
<path class="st0" d="M370.8,291.3c1.2-1.2,1.9-1.8,3.7-2.3c22-5.5,44-2,59.9,5.1c3.6,1.6,5.2,3.8,2.8,5.3c-3,1.7-12,7.6-17,12.2
	c-1.4,1.2-4,1.3-5.6,1.1c-18.6-2.5-28.3-3.9-56.3,6.7c-4.3,1.8-8.2-0.7-6.2-4C356,308.8,364.6,297.6,370.8,291.3z"/>
<path class="st0" d="M407,269.4c-4.8-0.5-4.9-4.1-2.8-5.4c5.2-3.7,13.7-8.1,22.2-11.5c2.6-1,3.9-1.3,6.2-1
	c6.3,0.6,16.7,4.9,28.6,13.4c14.3,10.2,27.1,29.6,18.6,28.1c-5.4-0.9-3-0.7-9.4-1.4c-6.5-0.6-10.7,0.1-13.7-0.2
	c-1.3-0.1-2.3-1-3.2-1.7C441.4,278.7,427.5,271.9,407,269.4z"/>
<path class="st0" d="M637.2,439.1c-1.3,4-2.8,9.1-6.1,6.7c-6.1-4.5-19.7-13.3-32.8-18.1c-0.7-0.2-0.6-1.1-0.4-1.7
	c0.9-2.1,1.3-4,1.8-6.4c0.4-2.3,2-3.8,3.2-5.6c3.4-5.4,5.2-14.7,5.9-20.6c0.6-5.4,0.2-11.4-0.9-16.3c-0.5-2.1-2-4.9-2-7.2
	c0-2.3,1.1-4.7,1.3-7.4c0.7-7.9-9.3-14.4-14.7-17c-12.3-5.7-25.4-10.9-38.7-17.9c-7.5-4-13.5-12.6-19.5-17.3
	c-6.1-4.7-25.6-12.4-33.4-14.5c-1.8-0.6-2.4-1.3-2.7-2.7c-3.2-15.4-12.3-32.3-29.2-45.4c-5.5-4.3,0.7-6.7,8.2-7.1
	C596.2,236.5,664.7,346.1,637.2,439.1z"/>
<path class="st0" d="M588.8,386.5c-0.1-0.6-0.3-2.7-0.3-3.1c0-1.1,2.2-2.6,3.3-3.4c1.6-1.3,3.4-2.6,4.6-3.2c0.4-0.3,0.7,0.4,0.8,0.5
	c4.4,6.7,2.7,23.1-0.4,31c-0.4,0.8-1,1.1-1.3,0.5c-1.6-3.5-4-6.7-6.8-8.5c-0.5-0.4-0.5-1.2-0.5-1.4
	C589,395.2,589.5,391.1,588.8,386.5z"/>
<path class="st0" d="M534.5,427c0.9-2.7,2-4.3,4.2-5.7c4-2.5,10.6-2.6,17-3.1c6.2-0.4,12.8-0.8,17.3-2.8c2.7-1.2,5.3-4.7,9.5-2.9
	c2,0.8,3,2.6,3.6,4.4c0.7,2,1.1,4,0.9,6.7c-0.6,7.7-6.8,11.4-8,18.6c-0.1,1.1-0.3,2.7-0.9,3.4c-4.8,4.8-14.2,3.8-22.7,3
	c-3.1-0.3-6.1-0.4-8.1-1.4c-1.5-0.7-2.8-2.1-4.1-3.3c-2.7-2.5-4.3-4.4-7-7.4c-0.9-1-3-2.9-3.2-4.1C533,431.3,534.1,428.2,534.5,427z
	"/>
<path class="st0" d="M385.4,517.6c-3.1-2.6-4.5-4.7-6.3-7.8c-14.6-23.3-22.8-105.9-4-133.9c6-9.8,12.3-5.3,10.2,2.3
	c-3.6,17-1.4,26.6,6.9,45c13,27.5,53.2,65.6,63.8,79.4c18.2,23.7,24.3,41,24.2,45.6c-0.1,3.6-0.8,5.8-7,5.3
	C440.2,551,408.3,537.3,385.4,517.6z"/>
<path class="st0" d="M404.2,406.2c-10.1-24.5-3.5-46.6,1-55c2.2-4.2,4.4-7,7.3-6.2c3.1,0.9,3.8,4.1,4.3,10
	c3.2,49,32.8,65.5,70.1,82.8c29.4,15,62.8,32.2,90.8,73.8c4.2,6,4.9,9.6,0.1,13.1c-17.1,11.7-32.6,19.8-55.2,25.1
	c-3.4,0.8-6.9,0.2-9.9-7.6C481.1,461.1,428.3,464.8,404.2,406.2z"/>
<path class="st0" d="M599,505.8c-4.8,4.8-7.5,1-9.1-2c-6.7-14.3-13.3-26.2-23.8-37.8c-1.8-1.9-0.4-4.5,2.3-4.2
	c3.4,0.3,5.7,0.1,9.5-1.5c3.2-1.4,6.9-5.9,8.7-12.3c1.3-4.7,1.4-6.1,4.3-6.4c0.7-0.1,2,0.1,2.8,0.3c3.5,1,7.3,3.9,10,6
	c7.1,5.4,17.6,17.3,19.4,21.1c1.2,2.5,0.1,4.1-0.6,5.5C618.8,482.1,607.2,497.8,599,505.8z"/>
</svg>
